<svg width="200" height="200" viewBox="0 0 200 200" fill="none" xmlns="http://www.w3.org/2000/svg">
  <!-- Detailed tree based on the Figma image -->
  <g>
    <!-- Main trunk -->
    <path d="M95 160 L105 160 L108 180 L92 180 Z" fill="url(#trunkGradient)"/>
    
    <!-- Root system -->
    <path d="M85 180 Q100 185 115 180 Q130 178 140 182 L135 185 Q100 190 65 185 Q80 178 85 180" fill="url(#trunkGradient)" opacity="0.6"/>
    
    <!-- Main canopy - organic irregular shape -->
    <path d="M100 160 
             C75 155 60 140 65 120 
             C62 110 68 95 78 90
             C75 80 82 65 95 60
             C88 45 98 30 115 35
             C110 20 125 15 135 25
             C140 15 155 20 158 35
             C165 30 175 40 172 50
             C180 55 185 70 178 80
             C185 85 188 100 180 110
             C188 115 185 130 175 135
             C180 145 170 160 155 158
             C145 165 125 165 115 160
             C108 162 102 161 100 160 Z" 
          fill="url(#leafGradient)"/>
    
    <!-- Inner foliage details -->
    <circle cx="90" cy="105" r="12" fill="url(#leafGradient)" opacity="0.8"/>
    <circle cx="125" cy="95" r="15" fill="url(#leafGradient)" opacity="0.7"/>
    <circle cx="110" cy="120" r="10" fill="url(#leafGradient)" opacity="0.9"/>
    <circle cx="140" cy="110" r="8" fill="url(#leafGradient)" opacity="0.8"/>
    <circle cx="85" cy="125" r="7" fill="url(#leafGradient)" opacity="0.6"/>
    
    <!-- Additional organic shapes for depth -->
    <path d="M80 100 Q95 95 105 105 Q115 110 120 105 Q125 100 130 108 Q125 115 115 118 Q105 120 95 115 Q85 110 80 100" 
          fill="url(#leafGradient)" opacity="0.5"/>
    
    <!-- Small branch details -->
    <path d="M95 140 L88 135 M105 142 L112 137 M98 125 L92 120" stroke="url(#trunkGradient)" stroke-width="2" opacity="0.7"/>
    
    <!-- Texture lines in foliage -->
    <path d="M85 90 Q100 95 115 90 M90 110 Q105 115 120 110 M95 130 Q110 135 125 130" 
          stroke="url(#leafGradient)" stroke-width="1" opacity="0.3"/>
  </g>
  
  <defs>
    <linearGradient id="leafGradient" x1="0%" y1="0%" x2="100%" y2="100%">
      <stop offset="0%" stop-color="#8B5CF6"/>
      <stop offset="30%" stop-color="#A855F7"/>
      <stop offset="60%" stop-color="#C084FC"/>
      <stop offset="100%" stop-color="#E879F9"/>
    </linearGradient>
    <linearGradient id="trunkGradient" x1="0%" y1="0%" x2="100%" y2="100%">
      <stop offset="0%" stop-color="#7C3AED"/>
      <stop offset="50%" stop-color="#8B5CF6"/>
      <stop offset="100%" stop-color="#A855F7"/>
    </linearGradient>
  </defs>
</svg>